<svg width="640" height="480" xmlns="http://www.w3.org/2000/svg">
 <!-- Created with SVG-edit - http://svg-edit.googlecode.com/ -->
 <g>
  <title>Layer 1</title>
  <path d="m49,102c1,0 3.132999,0.569504 7,2c4.194351,1.55159 11.843422,4.664574 19,6c10.857941,2.026108 21,3 30,3c10,0 19,-1 29,-1c9,0 17.082642,-1.694458 25,-4c6.072327,-1.768265 12.198013,-3.632973 18,-7c3.118484,-1.809723 7.146805,-4.863251 9,-7c3.276016,-3.777267 7.210052,-7.850761 10,-12c3.253601,-4.838806 5.194092,-8.888557 8,-14c2.152039,-3.920303 3.190277,-5.881523 5,-9c1.122345,-1.933998 1,-3 1,-4c0,-1 0.693436,-3.541195 2,-3c0.923874,0.382683 0.366547,2.022476 0,5c-0.503769,4.092213 -1.122574,9.98085 -2,16c-1.162949,7.977943 -2,16 -2,26c0,11 0.362518,23.008217 0,31c-0.500519,11.034012 -2,22 -3,31c-1,9 -3.365845,17.897461 -6,28c-2.326141,8.921265 -3.376831,19.18924 -7,30c-3.422516,10.212067 -7.587875,20.174881 -12,30c-4.580093,10.199158 -9.167435,18.901428 -15,29c-5.149246,8.915466 -9.640121,16.209564 -15,25c-3.754074,6.15686 -8.04895,13.95874 -19,27c-5.022522,5.981171 -8.085205,10.753784 -14,17c-4.402664,4.649353 -10.19577,7.648865 -14,10c-4.253258,2.628662 -7.041321,4.847229 -11,6c-3.036163,0.884125 -6.878555,3.493469 -10,4c-2.961266,0.48056 -4.878555,1.493469 -8,2c-2.961266,0.48056 -6,0 -8,0c-2,0 -3,0 -5,0c-1,0 -1.173096,-0.852722 -2,-2c-1.307453,-1.813995 -3.513008,-3.593994 -5,-6c-1.662506,-2.690002 -2.95517,-5.549164 -4,-9c-1.159138,-3.828369 -1.496227,-7.907776 -2,-12c-0.36655,-2.977509 -1,-6 -1,-9c0,-4 0,-9 0,-13c0,-4 -0.480545,-8.038727 0,-11c0.506542,-3.121429 2,-5 4,-7l0,-2l3,-2" id="svg_8" stroke-width="5" stroke="#000000" fill="none"/>
  <path d="m289,100c-1,0 -4.025818,-0.320366 -6,0c-3.121429,0.506538 -8.079712,2.847969 -12,5c-5.11145,2.805908 -10,5 -14,9c-5,5 -9.695663,11.227707 -15,18c-5.684921,7.258209 -10.662216,16.157852 -15,25c-6.502945,13.25563 -13.020767,23.992035 -18,37c-8.033539,20.987198 -11,29 -13,37c-2,8 -4.122574,14.98085 -5,21c-1.162949,7.977936 -2,17 -2,24c0,9 0,17 0,27c0,10 0,18 0,27c0,9 0,18 0,26c0,9 0.123581,18.178192 4,35c1.634781,7.094177 3.746399,13.161194 7,18c2.789948,4.149231 4,6 7,8c3,2 6.132996,3.569519 10,5c4.194351,1.551605 9.946716,3.498749 17,4c6.982391,0.496216 14.096664,1.387024 24,0c7.209747,-1.009766 15.264008,-3.51062 23,-8c6.236969,-3.619446 12.232727,-9.733246 18,-15c11.487152,-10.490234 14.467438,-17.358612 20,-25c4.580322,-6.326202 10.335938,-13.840668 14,-22c4.41214,-9.825134 9.467651,-18.857391 12,-28c2.460999,-8.88501 4.845001,-17.784515 7,-28c1.664154,-7.888641 2.498749,-15.946716 3,-23c0.496216,-6.982391 0,-16 0,-22c0,-7 0,-14 0,-21c0,-7 -0.116882,-13.967651 -2,-21c-3.199493,-11.948349 -4.465515,-17.838089 -6,-23c-1.452942,-4.887634 -2.691254,-8.071793 -4,-13c-0.811646,-3.056335 -3.144287,-7.934143 -4,-10c-1.210144,-2.92157 -0.968536,-5.412079 -3,-9c-1.393555,-2.461304 -2.513,-3.593994 -4,-6c-1.662506,-2.689987 -3.513,-4.593994 -5,-7c-1.662506,-2.689987 -2.385101,-5.372009 -5,-9c-0.826904,-1.147263 -2.234619,-3.152237 -3,-5c-1.082397,-2.613129 -3.130646,-4.128723 -4,-7c-1.04483,-3.450844 -3.346191,-4.70546 -5,-7c-1.307465,-1.813995 -2,-4 -3,-6c-1,-2 -2.692535,-3.186005 -4,-5c-0.826904,-1.14727 -2.07843,-2.789848 -5,-4c-2.065857,-0.855705 -3.026764,-1.770248 -4,-2c-2.176239,-0.513741 -4.053497,-1.540497 -6,-2c-2.176239,-0.513741 -3.823761,-1.486259 -6,-2c-1.946503,-0.459503 -5,0 -6,0c-1,0 -3,0 -4,0l0,1" id="svg_9" stroke-width="5" stroke="#000000" fill="none"/>
  <path d="m273,26c1,0 3,4 4,6c2,4 4.386475,10.337395 9,18c4.437134,7.369656 10.196686,15.893509 15,25c4.172852,7.911217 8.162201,16.932686 11,24c3.183685,7.928696 5.640717,15.060814 7,22c1.585205,8.092407 2.829315,16.138 6,38c2.92746,20.184891 9.18045,39.96254 12,54c3.205719,15.960052 3.22525,26.169449 6,37c2.354462,9.190033 4.533752,18.096619 6,24c1.524536,6.138062 2.918701,14.012085 4,21c1.860352,12.02243 2.51944,15.038727 3,18c0.506531,3.121429 1,6 1,9c0,3 0,6 0,10c0,2 0,5 0,8c0,2 0,6 0,10c0,3 0,6 0,9c0,3 0.48056,7.038727 0,10c-0.506531,3.121429 -2.497559,5.925781 -3,11c-0.197083,1.990265 -1,6 -2,9c-1,3 -3.917603,8.386871 -5,11c-1.148041,2.771637 -1.789856,6.07843 -3,9c-0.855713,2.065857 -2.513,4.593994 -4,7c-1.662506,2.690002 -2.346191,4.705475 -4,7c-1.307465,1.813995 -2.824432,4.0979 -4,6c-2.628662,4.253265 -4.234619,5.152252 -5,7c-0.541199,1.306549 -2,2 -3,3l0,1l-1,0l0,1" id="svg_10" stroke-width="5" stroke="#000000" fill="none"/>
  <path d="m403,39c0,1 0.229767,2.026752 0,3c-0.513733,2.17625 -2.144287,4.934143 -3,7c-1.210144,2.921562 -1.847229,6.041325 -3,10c-0.884125,3.036167 -3.288574,6.868286 -5,11c-1.210144,2.921562 -1.731445,8.076889 -3,12c-1.65686,5.123947 -3.475464,8.861938 -5,15c-1.466248,5.903397 -2.069824,10.988777 -3,17c-1.081299,6.9879 -1.498291,13.937965 -2,20c-0.412415,4.982956 0,11 0,17c0,4 0,7 0,11c0,6 0,9 0,18c0,4 0,10 0,17c0,5 0,12 0,20c0,7 0,14 0,21c0,8 0,15 0,22c0,8 0,15 0,21c0,5 0,12 0,18c0,7 0,12 0,19c0,7 -0.781769,14.083923 1,27c0.696808,5.051178 2.095428,10.977356 3,15c1.118652,4.974792 1.511261,9.029968 2,13c0.503784,4.092224 3.415894,8.761078 5,12c1.389343,2.840729 3,7 5,10c2,3 3.519287,5.558197 6,9c1.307465,1.813995 2.418854,5.418854 4,7c1.581146,1.581146 3.92807,5.611053 6,8c1.465088,1.68924 4,3 5,4c1,1 2.61731,3.076111 3,4c1.082397,2.613129 3.824432,3.0979 5,5c0.525726,0.850647 1.458801,1.693451 2,3c0.38269,0.923889 0.585785,1.585785 2,3c0.707092,0.707092 1,1 2,1c1,0 1,1 1,2l1,0l0,-1l0,-3" id="svg_11" stroke-width="5" stroke="#000000" fill="none"/>
  <path d="m337,236c0,0 1.076111,-0.38269 2,0c1.306549,0.541199 1.878571,1.493454 5,2c0.987091,0.160187 5,1 9,1c3,0 7.076111,-0.38269 8,0c1.306549,0.541199 3,1 5,1c2,0 3,0 4,0c1,0 2,0 3,0c1,0 2,0 3,0l1,0" id="svg_12" stroke-width="5" stroke="#000000" fill="none"/>
  <path d="m387,420c1,0 2.520172,-1.323669 4,-3c2.386169,-2.703003 5.07193,-5.953278 7,-9c3.118103,-4.927216 7,-14 12,-29c6,-18 11,-36 15,-56c2,-10 3.276733,-18.098969 5,-28c1.414001,-8.124084 4.674103,-16.044128 7,-32c0.877411,-6.019135 2.498749,-12.946716 3,-20c0.496216,-6.982391 1,-13 1,-18c0,-6 0,-10 0,-15c0,-4 0,-8 0,-12c0,-5 0,-10 0,-14c0,-6 -1,-10 -1,-15c0,-4 0,-8 0,-11c0,-4 0,-7 0,-11c0,-3 0,-9 0,-12c0,-3 0,-5 0,-7c0,-3 0,-5 0,-8c0,-3 0,-5 0,-8c0,-2 0,-5 0,-8c0,-2 0,-5 0,-8c0,-4 0,-6 0,-8c0,-2 0,-4 0,-6c0,-2 1,-5 0,-5c-1,0 0,4 0,6c0,6 1.48584,10.893997 3,19c1.480377,7.925179 3.732605,15.063622 6,24c1.790436,7.056503 4.105408,16.97438 6,25c2.118225,8.972916 3.113434,18.243988 6,27c3.083588,9.353683 5.848419,16.045105 8,23c1.869171,6.042038 2.704376,10.014603 3,13c0.502441,5.074203 2.155884,7.952469 3,11c2.460999,8.88501 2.03891,13.077469 3,19c1.013092,6.242889 4,13 5,19c1,6 3.1604,11.963287 4,16c1.238617,5.955322 1.847229,12.041321 3,16c0.884125,3.036163 1.847229,9.041321 3,13c1.76828,6.072327 3.498291,10.937958 4,17c0.329926,3.986359 1.731445,10.076904 3,14c1.65686,5.123962 2.569519,9.132996 4,13c1.551605,4.194336 2.789856,8.07843 4,11c1.711426,4.131714 5.190308,9.881531 7,13c2.24469,3.867981 2.789856,6.07843 4,9c0.855713,2.065857 2.917603,3.386871 4,6c0.38269,0.923889 1.486267,1.823761 2,4c0.229736,0.973236 0.692566,2.186005 2,4c1.653809,2.294525 2,4 3,4l1,1l0,1l0,-2" id="svg_13" stroke-width="5" stroke="#000000" fill="none"/>
  <path d="m434,260c3,0 4.025818,-0.679626 6,-1c3.121429,-0.506531 6.228363,-0.851959 9,-2c2.613129,-1.082397 4.412079,-0.968536 8,-3c1.230652,-0.696777 2.693451,-1.458801 4,-2c1.847748,-0.765366 2.292908,-0.292892 3,-1c1.414215,-1.414215 2.61731,-0.076126 3,-1c0.541199,-1.306564 2.292908,-0.292892 3,-1c0.707092,-0.707108 1.076111,-0.61731 2,-1c1.306549,-0.541199 1,-2 2,-2c1,0 1,-1 2,-1l1,0l0,-1l1,0" id="svg_14" stroke-width="5" stroke="#000000" fill="none"/>
  <path d="m515,403c0,0 0.144287,-0.934143 1,-3c1.210144,-2.92157 2.667969,-4.877197 4,-14c2.027893,-13.888397 1,-22 1,-32c0,-9 0,-20 0,-31c0,-12 0,-22 0,-32c0,-10 0.234985,-19.003448 0,-27c-0.500244,-17.022034 -1.387817,-25.100586 -3,-33c-1.455811,-7.133072 -5.116882,-16.967651 -7,-24c-2.132996,-7.965576 -4.130829,-14.957962 -6,-21c-2.151581,-6.954895 -4,-13 -6,-19c-2,-6 -4.130829,-12.957962 -6,-19c-2.151581,-6.954895 -4,-13 -6,-19c-2,-6 -2.533752,-10.096603 -4,-16c-1.524536,-6.138062 -5.824615,-16.061333 -8,-22c-1.852264,-5.056587 -4.981628,-7.712006 -6,-13c-0.567322,-2.945869 -2.513,-7.593994 -4,-10c-1.662506,-2.689995 -2.173096,-5.85273 -3,-7c-1.307465,-1.813992 -0.692535,-4.186008 -2,-6c-0.826904,-1.14727 -1.458801,-1.693436 -2,-3c-0.38269,-0.923878 0,0 0,1c0,1 1.610657,3.159279 3,6c1.584106,3.238922 4.408936,5.77636 7,11c2.392975,4.82428 5,10 8,14c3,4 5.532379,9.198921 7,12c2.320526,4.428894 4.610657,7.159279 6,10c1.584106,3.238922 3.912323,6.03067 5,9c1.852264,5.056587 4.768585,7.6129 7,13c1.57785,3.80925 2.385101,8.372009 5,12c1.653809,2.29454 3.917603,3.386871 5,6c1.530762,3.695511 1.877686,6.06601 3,8c1.809692,3.118484 3.610657,7.159271 5,10c1.584106,3.238922 3.912292,7.03067 5,10c1.852295,5.056595 4.494446,7.739761 8,15c2.341492,4.849457 5.190308,9.881516 7,13c2.24469,3.867996 4.909668,6.30806 7,10c2.031433,3.587921 2.606445,6.538696 4,9c2.031433,3.587921 3.541382,6.702667 5,10c1.66803,3.770645 1.75531,8.132004 4,12c1.809692,3.118484 2.321411,5.809006 4,9c2.50708,4.765991 3.288574,7.868286 5,12c3.630432,8.764679 5.147705,11.94342 7,17c1.087708,2.96933 2.415894,7.761078 4,11c1.389343,2.840729 1.847229,6.041321 3,10c0.884155,3.036163 2.147705,5.94342 4,11c1.087708,2.96933 1.541382,5.702667 3,9c1.66803,3.77063 1.31073,7.080261 2,10c0.513733,2.176239 2.496216,3.907776 3,8c0.244385,1.985016 0.432678,4.054138 1,7c1.018372,5.287994 2,7 2,9c0,2 0.540466,5.053497 1,7c0.513733,2.176239 0.234619,3.152252 1,5c0.541199,1.306549 1,2 1,3c0,1 0,2 0,3c0,1 -1,3 0,3c3,0 -0.366577,-6.022491 0,-9c0.503784,-4.092224 1,-10 1,-14c0,-5 0,-12 0,-18c0,-7 -0.876648,-15.013092 -2,-25c-0.901184,-8.011719 -2.519592,-18.074829 -4,-26c-1.51416,-8.106018 -3,-15 -4,-22c-1,-7 -2.207397,-13.953796 -3,-18c-1.359314,-6.939194 -2,-13 -3,-19c-1,-6 -1.761353,-11.044678 -3,-17c-0.8396,-4.036713 -1.507324,-8.024338 -2,-13c-0.502441,-5.074203 -2.493469,-11.878555 -3,-15c-0.800903,-4.93544 -1.493469,-8.878555 -2,-12c-0.800903,-4.93544 -0.51947,-8.038742 -1,-11c-0.506531,-3.121445 -2.493469,-5.878555 -3,-9c-0.48053,-2.961258 -1.144287,-7.934143 -2,-10c-1.210144,-2.92157 -1.359253,-6.051651 -2,-10c-0.506531,-3.121445 -2.917603,-4.386871 -4,-7c-1.148071,-2.771637 0.307434,-5.186005 -1,-7c-1.653809,-2.29454 -3,-7 -4,-9c-1,-2 -2.917603,-4.386871 -4,-7c-0.765381,-1.847755 -1.61731,-4.076118 -2,-5c-0.541199,-1.306564 -2.770264,-4.026749 -3,-5c-0.513733,-2.176254 -3,-3 -3,-4c0,-1 0.414185,-2.585785 -1,-4c-0.707092,-0.707108 -1.61731,-1.076118 -2,-2c-0.541199,-1.306564 -1.61731,-2.076118 -2,-3c-0.541199,-1.306564 -1,-2 -2,-3c-1,-1 -1.292908,-2.292892 -2,-3c-1.414185,-1.414215 -1,-2 -2,-3l0,-1l-1,0l0,-1" id="svg_15" stroke-width="5" stroke="#000000" fill="none"/>
  <path d="m29,414c0,1 -0.230648,2.303223 1,3c3.587925,2.031464 7.95797,3.130829 14,5c6.954899,2.151581 14.243809,2.691528 23,5c7.364143,1.941498 13.879974,4.481689 21,6c6.915581,1.474701 13.118088,1.375397 20,3c6.155365,1.453094 13.029968,2.511261 17,3c8.184433,1.007538 12.044678,2.761383 18,4c4.036713,0.8396 10,2 16,3c6,1 10.215393,1.118927 16,3c4.25293,1.382996 10.066147,2.662323 16,4c7.101898,1.600983 18.797501,4.609314 24,6c6.831223,1.82605 12.988785,2.069824 19,3c6.9879,1.081299 14,1 20,1c7,0 12,0 20,0c6,0 12,1 17,1c7,0 13,0 19,0c6,0 12,0 17,0c6,0 11,0 22,0c7,0 13,0 18,0c7,0 13,0 18,0c6,0 11,0 17,0c7,0 14,0 21,0c7,0 13.925781,-0.497559 19,-1c8.956207,-0.886841 14.015106,0.425323 20,0c7.053284,-0.501251 13.071808,-1.691254 18,-3c6.112671,-1.623322 11.98877,-3.069824 18,-4c6.987915,-1.081299 13.071808,-2.691254 18,-4c6.112671,-1.623322 12,-3 21,-6c3,-1 8.106995,-2.080994 12,-3c4.352478,-1.027496 6.963806,-4.115875 10,-5c3.958679,-1.152771 7.177002,-2.345184 12,-4c2.115051,-0.725677 5,-4 8,-5c3,-1 4.705444,-3.346191 7,-5c1.813965,-1.307465 4,-2 7,-5c1,-1 2.852722,-2.173096 4,-3c1.813965,-1.307465 3.076111,-1.61731 4,-2c1.30658,-0.541199 3.076111,-2.61731 4,-3c1.30658,-0.541199 2,-2 3,-3l1,0l0,-1l1,0" id="svg_17" stroke-width="5" stroke="#000000" fill="none"/>
 </g>
</svg>